PathFileType	4	(X/Y/Z)	 s04c0203.trc
DataRate	CameraRate	NumFrames	NumMarkers	Units	OrigDataRate	OrigDataStartFrame	OrigNumFrames
200	200	4	50	mm	200	1251	2000
Frame#	Time	racr			lacr			c7			jug			rlel			rdr			llel			ldr			s2			lic			ric			lasi			rasi			rpsi			lpsi			rgt			lgt			rth1			rth2			rth3			rth4			rlfc			rmfc			rsh1			rsh2			rsh3			rsh4			rlmal			rmmal			rcal			rtoe			rmt5			lth1			lth2			lth4			lth3			llfc			lmfc			lsh1			lsh2			lsh3			lsh4			llmal			lmmal			lcal			ltoe			lmt5			SBIKE			LBIKE			RBIKE			
		X1	Y1	Z1	X2	Y2	Z2	X3	Y3	Z3	X4	Y4	Z4	X5	Y5	Z5	X6	Y6	Z6	X7	Y7	Z7	X8	Y8	Z8	X9	Y9	Z9	X10	Y10	Z10	X11	Y11	Z11	X12	Y12	Z12	X13	Y13	Z13	X14	Y14	Z14	X15	Y15	Z15	X16	Y16	Z16	X17	Y17	Z17	X18	Y18	Z18	X19	Y19	Z19	X20	Y20	Z20	X21	Y21	Z21	X22	Y22	Z22	X23	Y23	Z23	X24	Y24	Z24	X25	Y25	Z25	X26	Y26	Z26	X27	Y27	Z27	X28	Y28	Z28	X29	Y29	Z29	X30	Y30	Z30	X31	Y31	Z31	X32	Y32	Z32	X33	Y33	Z33	X34	Y34	Z34	X35	Y35	Z35	X36	Y36	Z36	X37	Y37	Z37	X38	Y38	Z38	X39	Y39	Z39	X40	Y40	Z40	X41	Y41	Z41	X42	Y42	Z42	X43	Y43	Z43	X44	Y44	Z44	X45	Y45	Z45	X46	Y46	Z46	X47	Y47	Z47	X48	Y48	Z48	X49	Y49	Z49	X50	Y50	Z50	
1251	6.2550	512.425031	1314.743802	-123.905393	515.557286	1335.392261	-407.654823	495.351883	1399.754364	-269.104323	441.905432	1251.109608	-279.895565	455.185818	1050.976766	50.215046	688.932976	938.919773	-82.912624	474.708815	1087.578468	-562.702978	672.681910	921.096879	-442.151278	-71.473238	1176.731462	-272.301393	75.409657	1203.747066	-421.607188	77.101834	1182.786760	-101.566688	121.149574	1164.802504	-380.527569	126.160498	1139.721325	-146.631019	-43.175580	1217.466047	-225.224967	-46.524489	1229.765999	-299.906321	28.583233	1117.312391	-92.567927	62.826338	1134.636840	-454.929622	125.692864	984.309553	-63.998569	192.918309	926.792640	-62.926250	224.608288	847.311017	-62.474056	221.519931	947.072927	-76.065188	290.141265	717.805392	-78.512406	285.852581	702.430781	-193.251289	210.727987	617.518658	-66.126598	181.586195	534.049838	-88.151340	113.905624	482.827845	-106.494134	211.865111	519.526812	-107.617756	38.480101	350.563244	-125.637616	74.082791	351.295088	-206.117509	-29.510077	350.242846	-176.329538	228.824153	194.247996	-144.870839	152.560426	203.938421	-98.942938	135.312410	1076.090063	-459.000306	220.846533	1062.907886	-456.678670	234.609486	1094.174887	-443.726362	290.022808	1006.624814	-458.071763	424.551808	917.600771	-429.853708	451.247319	898.218834	-317.923215	400.452404	806.988882	-456.507100	384.989911	722.186821	-439.719512	330.393878	652.313350	-442.277700	409.680301	713.763114	-410.374765	265.557687	519.405627	-441.369532	258.981970	526.723915	-355.003120	181.294581	499.177602	-405.945196	479.898684	468.614176	-396.851594	411.251766	434.545279	-462.524329	-176.693381	933.564283	-279.667372	-2.979289	85.992802	-485.062090	-15.011718	80.409543	-84.174659	
1252	6.2600	511.727792	1314.722304	-123.757741	515.178977	1335.700924	-407.986506	494.889275	1400.006414	-268.729925	441.270631	1251.447212	-279.863700	454.140043	1050.250329	49.737059	688.033090	937.980817	-82.624279	473.781442	1087.840276	-562.687893	671.352010	920.903115	-442.150582	-71.510040	1175.072338	-272.867868	75.881435	1202.053047	-422.311799	77.178919	1181.596666	-101.942151	121.339731	1162.891037	-380.505477	126.306011	1138.625812	-147.127305	-43.343146	1216.124659	-225.557901	-47.538421	1225.794767	-298.080287	28.898975	1116.358654	-92.567840	63.485133	1129.544185	-454.743902	128.495843	985.726265	-64.640349	196.805042	929.519264	-63.472061	230.038676	850.852344	-61.763379	224.813005	950.437997	-76.751853	296.704301	721.901509	-76.718221	292.332406	706.576106	-191.532085	215.076606	623.329371	-64.901623	183.867260	540.668235	-87.280230	114.860796	491.273465	-105.960499	213.788088	525.443303	-106.838899	36.307780	361.172202	-125.819728	72.233870	361.132718	-206.155406	-31.295097	362.521992	-176.437278	222.741631	199.744408	-144.641522	146.461695	211.547297	-99.200554	135.894051	1069.815057	-458.624128	221.200383	1055.018051	-456.508056	235.628295	1086.175071	-444.037062	289.000568	997.221125	-456.807396	421.677713	905.473492	-428.197686	447.603362	884.756785	-317.751887	398.529190	793.064444	-454.936087	384.073962	708.039540	-438.096515	330.516727	637.380228	-441.057736	408.778269	699.840017	-408.422441	267.918438	505.104002	-441.574553	260.971093	512.174535	-354.628030	183.914117	482.050709	-406.346882	483.846465	463.461706	-396.896631	416.686251	426.535939	-462.525791	-176.829341	933.460823	-279.242166	-2.991690	85.924146	-485.037236	-15.019745	80.396528	-84.171152	
1253	6.2650	511.107172	1314.928575	-123.369542	514.905036	1336.025501	-408.139138	494.481555	1400.256267	-268.134403	440.810363	1251.728212	-279.452403	453.060488	1049.597531	49.135816	687.018990	936.950297	-82.590962	472.822631	1088.163255	-562.738351	670.065603	920.760693	-442.034098	-71.189827	1173.466675	-272.961054	76.273026	1200.134801	-422.875245	77.144299	1180.199893	-102.299334	121.613339	1160.868875	-380.528719	127.537899	1137.519180	-147.210355	-43.380475	1214.539942	-225.861682	-47.054010	1224.092295	-298.757803	29.365461	1115.309338	-92.549457	64.189497	1124.046604	-454.515198	131.239340	987.384399	-65.286231	200.650457	932.334425	-63.822523	235.353093	854.363351	-61.084102	228.173129	953.556934	-77.312173	302.811686	725.970084	-74.980773	298.472289	710.902955	-189.944664	219.537405	628.973151	-63.615140	186.162768	547.220433	-86.522281	116.021745	499.619016	-105.378405	215.843408	531.431569	-106.024474	34.640553	372.135716	-126.087708	70.583959	371.031536	-206.308990	-33.506103	374.992960	-177.382338	217.188878	206.137991	-144.241214	140.859711	219.658539	-99.337005	136.540186	1063.400757	-458.447377	221.626212	1047.024631	-456.342956	236.672440	1078.181154	-444.485011	288.245116	988.017599	-456.149842	418.465030	893.332288	-427.164239	444.417556	871.825204	-318.203968	396.330665	779.129833	-453.431531	383.232792	693.881177	-436.702691	330.907369	622.287820	-439.955200	407.702550	686.233567	-406.658242	270.632620	490.875894	-441.323694	263.526939	497.778634	-354.201037	187.298483	465.315350	-406.079619	487.630005	457.182329	-396.996149	421.763687	417.902530	-462.548314	-176.786703	933.502521	-279.211083	-3.313221	85.532282	-484.704812	-15.013018	80.335255	-84.152144	
1254	6.2700	510.507017	1315.227806	-122.956942	514.678610	1336.257373	-408.248181	494.093930	1400.562286	-267.360332	440.358859	1252.072225	-278.894737	451.986952	1049.021829	48.410875	685.948809	935.860220	-82.833006	471.900195	1088.496481	-562.808098	668.884746	920.721544	-441.961718	-70.527827	1170.726849	-272.833341	76.582197	1197.982070	-423.359989	77.320080	1178.683187	-103.075045	121.976797	1158.743369	-380.605969	127.939420	1136.415205	-147.814889	-43.463066	1212.800592	-226.176895	-46.665926	1222.032660	-299.401214	29.905455	1114.156831	-92.544788	64.989914	1118.341942	-454.251683	133.996850	988.713099	-65.968711	204.294640	935.071818	-64.241616	240.457357	857.814699	-60.374388	231.432396	956.491047	-77.846018	308.598339	729.855496	-73.328870	304.200602	714.989036	-188.631976	223.707942	634.572559	-62.340655	188.564216	553.649334	-85.667763	117.276962	507.902882	-104.842909	217.885692	537.377688	-105.339552	32.771175	382.707099	-126.354290	68.848168	381.068879	-206.618614	-35.231271	387.306246	-177.975226	211.810699	213.007553	-144.364479	135.778739	228.253068	-99.402725	137.458994	1057.060280	-458.433959	222.038019	1038.996435	-455.973342	237.840181	1070.283302	-444.885691	287.658227	979.066996	-455.748640	414.876409	881.218862	-427.345821	440.880667	859.384109	-316.472258	393.888093	765.704755	-452.901648	382.609221	680.290294	-435.647275	331.999023	607.540766	-438.924862	406.883036	673.612336	-405.191162	273.568453	477.187744	-440.948532	266.628849	483.702563	-353.621375	190.952948	449.420332	-405.659208	491.397851	449.861826	-397.080257	426.537926	408.700481	-462.434747	-176.670387	933.491461	-279.206992	-3.330664	85.459029	-484.660567	-15.001745	80.344076	-84.165282	
